PathFileType	4	(X/Y/Z)	C:\Users\86182\Documents\cortex\Trimmed_M1_H3.trc
DataRate	CameraRate	NumFrames	NumMarkers	Units	OrigDataRate	OrigDataStartFrame	OrigNumFrames
100.00	100.00	       140	2	mm	100.00	571	       951
Frame#	Time	gripper			box			
		X1	Y1	Z1	X2	Y2	Z2	

571	5.700	215.90434	201.27078	288.43021	205.54913	201.15886	157.09224	
572	5.710	215.90434	201.27078	288.43021	205.54892	201.15854	157.09120	
573	5.720	215.90434	201.27078	288.43021	205.55020	201.15965	157.08974	
574	5.730	215.85683	201.27715	288.43539	205.55298	201.16183	157.08801	
575	5.740	215.91547	201.27606	288.42630	205.55711	201.16440	157.08624	
576	5.750	215.90434	201.27078	288.43021	205.56216	201.16676	157.08463	
577	5.760	215.90990	201.27342	288.42825	205.56735	201.16862	157.08328	
578	5.770	215.90434	201.27078	288.43021	205.57161	201.16986	157.08241	
579	5.780	215.94865	201.29182	288.41455	205.57423	201.17046	157.08212	
580	5.790	215.92102	201.27869	288.42432	205.57524	201.17058	157.08231	
581	5.800	215.90990	201.27342	288.42825	205.57500	201.17047	157.08276	
582	5.810	215.90434	201.27078	288.43021	205.57385	201.17017	157.08330	
583	5.820	215.90434	201.27078	288.43021	205.57211	201.16943	157.08379	
584	5.830	215.90990	201.27342	288.42825	205.57013	201.16818	157.08411	
585	5.840	215.90434	201.27078	288.43021	205.56828	201.16669	157.08414	
586	5.850	215.90434	201.27078	288.43021	205.56706	201.16536	157.08383	
587	5.860	215.90434	201.27078	288.43021	205.56703	201.16438	157.08313	
588	5.870	215.90434	201.27078	288.43021	205.56839	201.16370	157.08208	
589	5.880	215.90434	201.27078	288.43021	205.57059	201.16328	157.08087	
590	5.890	215.91547	201.27606	288.42630	205.57248	201.16312	157.07994	
591	5.900	215.91547	201.27606	288.42630	205.57309	201.16322	157.07959	
592	5.910	215.94318	201.28922	288.41647	205.57216	201.16353	157.07993	
593	5.920	215.92102	201.27869	288.42432	205.57014	201.16380	157.08076	
594	5.930	215.90434	201.27078	288.43021	205.56783	201.16380	157.08188	
595	5.940	215.90434	201.27078	288.43021	205.56595	201.16351	157.08308	
596	5.950	215.90434	201.27078	288.43021	205.56509	201.16324	157.08417	
597	5.960	215.90434	201.27078	288.43021	205.56546	201.16331	157.08487	
598	5.970	215.90434	201.27078	288.43021	205.56697	201.16389	157.08502	
599	5.980	215.90434	201.27078	288.43021	205.56946	201.16473	157.08455	
600	5.990	215.90434	201.27078	288.43021	205.57304	201.16557	157.08327	
601	6.000	215.90434	201.27078	288.43021	205.57794	201.16620	157.08109	
602	6.010	215.90434	201.27078	288.43021	205.58377	201.16661	157.07820	
603	6.020	215.90434	201.27078	288.43021	205.58911	201.16673	157.07539	
604	6.030	215.93205	201.28394	288.42041	205.59206	201.16634	157.07372	
605	6.040	215.91547	201.27606	288.42630	205.59128	201.16534	157.07390	
606	6.050	215.90434	201.27078	288.43021	205.58682	201.16396	157.07599	
607	6.060	215.93762	201.28658	288.41846	205.57988	201.16263	157.07938	
608	6.070	215.93115	201.29083	288.41779	205.57222	201.16156	157.08321	
609	6.080	215.80968	201.28348	288.44052	205.56537	201.16080	157.08669	
610	6.090	215.91547	201.27606	288.42630	205.56023	201.16032	157.08934	
611	6.100	215.90434	201.27078	288.43021	205.55717	201.16010	157.09090	
612	6.110	215.90434	201.27078	288.43021	205.55605	201.16013	157.09126	
613	6.120	215.88789	201.26292	288.43362	205.55638	201.16043	157.09056	
614	6.130	215.90434	201.27078	288.43021	205.55753	201.16106	157.08910	
615	6.140	215.89502	201.26637	288.43533	205.55901	201.16194	157.08714	
616	6.150	215.90434	201.27078	288.43021	205.56067	201.16299	157.08498	
617	6.160	215.90434	201.27078	288.43021	205.56236	201.16403	157.08286	
618	6.170	215.90434	201.27078	288.43021	205.56383	201.16492	157.08125	
619	6.180	215.90434	201.27078	288.43021	205.56487	201.16551	157.08060	
620	6.190	215.90434	201.27078	288.43021	205.56546	201.16588	157.08104	
621	6.200	215.90990	201.27342	288.42825	205.56566	201.16620	157.08226	
622	6.210	215.90434	201.27078	288.43021	205.56544	201.16660	157.08377	
623	6.220	215.92102	201.27869	288.42432	205.56476	201.16690	157.08519	
624	6.230	215.93762	201.28658	288.41846	205.56357	201.16689	157.08644	
625	6.240	215.90434	201.27078	288.43021	205.56177	201.16634	157.08755	
626	6.250	215.90434	201.27078	288.43021	205.55949	201.16524	157.08864	
627	6.260	215.90434	201.27078	288.43021	205.55722	201.16371	157.08969	
628	6.270	215.90434	201.27078	288.43021	205.55556	201.16202	157.09055	
629	6.280	215.90434	201.27078	288.43021	205.55489	201.16040	157.09100	
630	6.290	215.90434	201.27078	288.43021	205.55533	201.15909	157.09100	
631	6.300	215.90434	201.27078	288.43021	205.55678	201.15833	157.09053	
632	6.310	215.90434	201.27078	288.43021	205.55919	201.15817	157.08963	
633	6.320	215.90434	201.27078	288.43021	205.56245	201.15854	157.08832	
634	6.330	215.90434	201.27078	288.43021	205.56639	201.15924	157.08664	
635	6.340	215.90434	201.27078	288.43021	205.57071	201.16011	157.08467	
636	6.350	215.93205	201.28394	288.42041	205.57532	201.16095	157.08249	
637	6.360	215.95421	201.29446	288.41257	205.58018	201.16159	157.08012	
638	6.370	215.93205	201.28394	288.42041	205.58481	201.16199	157.07784	
639	6.380	215.92102	201.27869	288.42432	205.58821	201.16226	157.07614	
640	6.390	215.95421	201.29446	288.41257	205.58954	201.16260	157.07550	
641	6.400	215.93762	201.28658	288.41846	205.58859	201.16309	157.07600	
642	6.410	215.90434	201.27078	288.43021	205.58582	201.16371	157.07742	
643	6.420	215.90434	201.27078	288.43021	205.58205	201.16434	157.07932	
644	6.430	215.90434	201.27078	288.43021	205.57822	201.16489	157.08118	
645	6.440	215.90434	201.27078	288.43021	205.57498	201.16534	157.08264	
646	6.450	215.90434	201.27078	288.43021	205.57257	201.16571	157.08357	
647	6.460	215.90434	201.27078	288.43021	205.57101	201.16595	157.08391	
648	6.470	215.90434	201.27078	288.43021	205.57027	201.16614	157.08366	
649	6.480	215.90434	201.27078	288.43021	205.57007	201.16641	157.08293	
650	6.490	215.90434	201.27078	288.43021	205.56995	201.16684	157.08194	
651	6.500	215.93205	201.28394	288.42041	205.56967	201.16739	157.08092	
652	6.510	215.91547	201.27606	288.42630	205.56935	201.16794	157.07993	
653	6.520	215.88054	201.27397	288.43283	205.56935	201.16840	157.07893	
654	6.530	215.92650	201.28130	288.42239	205.56992	201.16864	157.07802	
655	6.540	215.90434	201.27078	288.43021	205.57092	201.16858	157.07735	
656	6.550	215.92102	201.27869	288.42432	205.57193	201.16821	157.07716	
657	6.560	215.90434	201.27078	288.43021	205.57246	201.16753	157.07762	
658	6.570	215.90434	201.27078	288.43021	205.57224	201.16667	157.07867	
659	6.580	215.90434	201.27078	288.43021	205.57143	201.16585	157.08006	
660	6.590	215.90434	201.27078	288.43021	205.57057	201.16531	157.08136	
661	6.600	215.90434	201.27078	288.43021	205.57027	201.16536	157.08215	
662	6.610	215.90434	201.27078	288.43021	205.57103	201.16605	157.08203	
663	6.620	215.90434	201.27078	288.43021	205.57300	201.16714	157.08083	
664	6.630	215.92102	201.27869	288.42432	205.57581	201.16821	157.07878	
665	6.640	215.90434	201.27078	288.43021	205.57867	201.16902	157.07639	
666	6.650	215.90434	201.27078	288.43021	205.58061	201.16971	157.07440	
667	6.660	215.90434	201.27078	288.43021	205.58080	201.17029	157.07359	
668	6.670	215.92650	201.28130	288.42239	205.57889	201.17056	157.07449	
669	6.680	215.90434	201.27078	288.43021	205.57526	201.17014	157.07706	
670	6.690	215.90434	201.27078	288.43021	205.57095	201.16902	157.08051	
671	6.700	215.90434	201.27078	288.43021	205.56740	201.16759	157.08368	
672	6.710	215.90434	201.27078	288.43021	205.56583	201.16635	157.08571	
673	6.720	215.90990	201.27342	288.42825	205.56682	201.16562	157.08614	
674	6.730	215.90434	201.27078	288.43021	205.57016	201.16537	157.08507	
675	6.740	215.90434	201.27078	288.43021	205.57512	201.16533	157.08292	
676	6.750	215.90434	201.27078	288.43021	205.58072	201.16525	157.08020	
677	6.760	215.90434	201.27078	288.43021	205.58615	201.16521	157.07741	
678	6.770	215.93762	201.28658	288.41846	205.59068	201.16545	157.07497	
679	6.780	215.90434	201.27078	288.43021	205.59375	201.16615	157.07320	
680	6.790	215.90990	201.27342	288.42825	205.59523	201.16724	157.07220	
681	6.800	215.90434	201.27078	288.43021	205.59552	201.16856	157.07179	
682	6.810	215.94865	201.29182	288.41455	205.59518	201.17007	157.07166	
683	6.820	215.92650	201.28130	288.42239	205.59439	201.17171	157.07169	
684	6.830	215.90434	201.27078	288.43021	205.59286	201.17313	157.07198	
685	6.840	215.92650	201.28130	288.42239	205.59000	201.17374	157.07285	
686	6.850	215.90434	201.27078	288.43021	205.58524	201.17319	157.07471	
687	6.860	215.92650	201.28130	288.42239	205.57881	201.17171	157.07753	
688	6.870	215.90434	201.27078	288.43021	205.57199	201.16992	157.08075	
689	6.880	215.91547	201.27606	288.42630	205.56635	201.16830	157.08362	
690	6.890	215.90434	201.27078	288.43021	205.56296	201.16708	157.08559	
691	6.900	215.90434	201.27078	288.43021	205.56226	201.16634	157.08623	
692	6.910	215.90434	201.27078	288.43021	205.56407	201.16612	157.08546	
693	6.920	215.90434	201.27078	288.43021	205.56775	201.16660	157.08354	
694	6.930	215.90434	201.27078	288.43021	205.57240	201.16797	157.08098	
695	6.940	215.90434	201.27078	288.43021	205.57727	201.17036	157.07834	
696	6.950	215.90434	201.27078	288.43021	205.58188	201.17361	157.07599	
697	6.960	215.90434	201.27078	288.43021	205.58578	201.17731	157.07410	
698	6.970	215.95970	201.29706	288.41061	205.58862	201.18063	157.07272	
699	6.980	215.90990	201.27342	288.42825	205.59001	201.18257	157.07201	
700	6.990	215.93762	201.28658	288.41846	205.58972	201.18240	157.07208	
701	7.000	215.90434	201.27078	288.43021	205.58784	201.18021	157.07292	
702	7.010	215.90990	201.27342	288.42825	205.58484	201.17670	157.07439	
703	7.020	215.90434	201.27078	288.43021	205.58119	201.17274	157.07640	
704	7.030	215.90434	201.27078	288.43021	205.57721	201.16896	157.07884	
705	7.040	215.93205	201.28394	288.42041	205.57320	201.16570	157.08141	
706	7.050	215.90990	201.27342	288.42825	205.56972	201.16327	157.08348	
707	7.060	215.90434	201.27078	288.43021	205.56754	201.16191	157.08446	
708	7.070	215.90434	201.27078	288.43021	205.56728	201.16188	157.08389	
709	7.080	215.93205	201.28394	288.42041	205.56915	201.16333	157.08168	
710	7.090	215.90434	201.27078	288.43021	205.57265	201.16626	157.07823	
